<?xml version="1.0" standalone="no"?>
<!DOCTYPE svg PUBLIC "-//W3C//DTD SVG 20010904//EN"
 "http://www.w3.org/TR/2001/REC-SVG-20010904/DTD/svg10.dtd">
<svg version="1.0" xmlns="http://www.w3.org/2000/svg"
 width="400.000000pt" height="400.000000pt" viewBox="0 0 400.000000 400.000000"
 preserveAspectRatio="xMidYMid meet">
<metadata>
Created by potrace 1.14, written by Peter Selinger 2001-2017
</metadata>
<g transform="translate(0.000000,400.000000) scale(0.100000,-0.100000)"
fill="#000000" stroke="none">
<path d="M0 2000 l0 -2000 2000 0 2000 0 0 2000 0 2000 -2000 0 -2000 0 0
-2000z m2300 1936 c0 -27 -13 -56 -25 -56 -13 0 -29 56 -20 70 7 12 45 0 45
-14z m-100 -36 c0 -11 -7 -20 -15 -20 -8 0 -15 9 -15 20 0 11 7 20 15 20 8 0
15 -9 15 -20z m260 -15 c0 -25 8 -29 43 -26 13 2 17 -5 17 -33 0 -36 0 -36
-45 -36 l-45 0 0 -44 c0 -39 -3 -45 -22 -48 -17 -2 -22 -9 -20 -25 3 -21 -1
-23 -42 -23 l-46 0 0 39 c0 33 4 40 23 43 14 2 23 11 25 26 2 14 10 22 23 22
17 0 19 7 19 65 l0 65 35 0 c31 0 35 -3 35 -25z m70 11 c31 -13 31 -13 9 -19
-46 -13 -69 -8 -69 13 0 23 16 25 60 6z m64 -22 c24 -9 20 -44 -4 -44 -15 0
-20 7 -20 25 0 27 1 28 24 19z m-434 -24 c0 -13 -7 -20 -20 -20 -13 0 -20 7
-20 20 0 13 7 20 20 20 13 0 20 -7 20 -20z m593 -34 c21 -8 47 -22 58 -32 11
-10 29 -19 41 -21 11 -2 28 -8 37 -13 12 -7 9 -9 -16 -10 -26 0 -33 -4 -33
-20 0 -18 -7 -20 -59 -20 -58 0 -60 1 -63 28 -2 22 -8 28 -35 30 -28 3 -33 -1
-39 -22 -3 -14 -4 -33 0 -41 6 -17 46 -21 46 -5 0 6 -7 10 -15 10 -8 0 -15 7
-15 15 0 8 9 15 20 15 17 0 20 -7 20 -40 0 -36 -2 -40 -25 -40 -20 0 -25 -5
-25 -25 0 -19 5 -25 23 -25 21 -1 21 -1 -5 -21 -16 -11 -28 -27 -28 -35 0 -8
-7 -14 -15 -14 -13 0 -15 20 -14 125 2 124 2 125 25 125 19 0 24 5 24 25 0 21
5 25 28 25 15 -1 44 -7 65 -14z m-1623 -66 c0 -5 -9 -10 -21 -10 -11 0 -17 5
-14 10 3 6 13 10 21 10 8 0 14 -4 14 -10z m800 -30 c0 -17 -7 -20 -40 -20 -33
0 -40 3 -40 20 0 17 7 20 40 20 33 0 40 -3 40 -20z m-180 -50 c0 -13 -7 -20
-19 -20 -14 0 -19 6 -18 20 1 12 8 20 19 20 11 0 18 -7 18 -20z m-736 -24 c12
4 16 -5 18 -43 3 -43 5 -48 26 -45 20 3 22 -1 22 -42 l0 -46 -70 0 c-67 0 -70
-1 -70 -24 0 -19 -4 -23 -20 -19 -19 5 -20 0 -20 -111 l0 -116 -25 0 c-23 0
-25 -4 -25 -45 0 -38 -3 -45 -20 -45 -14 0 -20 -7 -20 -23 0 -18 -5 -23 -22
-23 -20 1 -23 -5 -26 -45 -3 -41 -6 -46 -23 -42 -15 4 -19 0 -19 -21 0 -21 -5
-26 -25 -26 -20 0 -25 -5 -25 -24 0 -19 -4 -23 -20 -19 -16 4 -20 0 -20 -21 0
-21 -5 -26 -25 -26 -20 0 -25 -5 -25 -26 0 -21 -4 -24 -20 -19 -18 6 -20 2
-20 -44 0 -47 -2 -51 -22 -48 -22 2 -23 -2 -26 -65 -3 -60 -5 -68 -22 -68 -17
0 -20 -7 -20 -45 0 -41 -2 -45 -25 -45 -23 0 -25 -4 -25 -45 0 -38 -3 -45 -20
-45 -17 0 -20 -7 -20 -45 0 -41 -2 -45 -25 -45 -20 0 -25 -5 -25 -24 0 -19 -4
-23 -20 -19 -16 4 -20 0 -20 -21 0 -21 -5 -26 -25 -26 -20 0 -25 -5 -25 -25 0
-18 -5 -25 -20 -25 -18 0 -20 -7 -20 -71 0 -66 -1 -71 -20 -66 -18 5 -19 -1
-22 -87 -3 -87 -4 -91 -25 -90 -18 0 -23 -5 -23 -23 0 -16 -6 -23 -20 -23 -17
0 -20 7 -20 40 0 31 4 40 18 41 16 1 16 2 -1 6 -15 4 -17 18 -17 119 0 107 1
114 20 114 15 0 20 7 20 26 0 14 4 23 9 20 5 -4 20 -2 33 3 20 9 19 10 -15 10
-30 1 -39 -4 -47 -21 -8 -21 -9 -20 -9 10 -1 22 4 32 14 32 11 0 15 12 15 49
0 46 1 48 25 43 22 -4 25 -1 25 22 0 15 6 26 13 26 9 0 12 -9 9 -28 -4 -28 -3
-28 50 -29 45 0 47 0 11 4 l-43 4 0 50 c0 42 3 49 19 49 13 0 21 8 23 23 3 19
10 22 51 25 l47 3 0 -50 c0 -48 -2 -51 -25 -51 -20 0 -25 -5 -25 -24 l0 -24
29 27 c22 20 30 38 31 67 3 65 4 64 -50 64 -36 0 -50 4 -50 14 0 9 7 12 20 9
19 -5 20 0 20 66 0 69 1 71 25 71 23 0 25 4 25 45 0 38 3 45 20 45 17 0 20 7
20 45 0 41 2 45 25 45 23 0 25 3 25 50 l0 50 -45 0 -45 0 0 39 c0 22 -3 46 -6
55 -10 26 16 18 28 -9 10 -22 17 -25 69 -25 66 0 85 -19 44 -46 -40 -26 -31
-84 13 -84 17 0 39 15 68 45 27 29 51 45 66 45 31 0 48 18 48 49 0 18 14 38
45 66 25 22 45 45 45 52 0 7 5 13 10 13 6 0 27 15 45 34 34 32 35 36 35 107 0
64 3 76 21 87 18 11 20 22 19 75 -1 34 -2 77 -1 96 1 32 2 33 19 18 46 -42 72
-13 72 78 0 74 17 115 32 75 4 -12 13 -17 22 -14z m-64 -66 c0 -68 -1 -70 -25
-70 -24 0 -25 3 -25 58 0 57 11 82 37 82 9 0 13 -19 13 -70z m710 50 c0 -11
-7 -20 -15 -20 -8 0 -15 9 -15 20 0 11 7 20 15 20 8 0 15 -9 15 -20z m1270 0
c0 -21 1 -21 90 -24 40 -1 45 -4 44 -23 0 -18 5 -23 23 -23 21 0 23 -5 23 -45
l0 -45 -45 0 c-38 0 -45 3 -45 20 0 15 -7 20 -25 20 -18 0 -25 -5 -25 -20 0
-11 -7 -20 -15 -20 -8 0 -15 9 -15 21 0 11 -4 18 -9 14 -5 -3 -7 -21 -4 -40 4
-28 2 -35 -11 -35 -19 0 -21 11 -4 28 9 9 7 12 -10 12 -15 0 -22 -6 -22 -19 0
-13 -8 -21 -22 -23 -20 -3 -23 -8 -20 -45 3 -40 2 -43 -22 -43 -24 0 -26 -3
-26 -45 l0 -45 -45 0 -45 0 0 -44 c0 -39 -3 -45 -22 -48 -18 -2 -24 -10 -26
-39 -3 -32 -7 -38 -33 -43 -16 -3 -29 -12 -29 -20 0 -7 -9 -16 -20 -19 -12 -3
-20 -14 -20 -25 0 -14 -8 -22 -22 -24 -18 -2 -23 -10 -23 -33 0 -22 6 -33 23
-40 12 -5 22 -15 22 -22 0 -20 49 -48 62 -35 14 14 1 32 -23 32 -12 0 -19 7
-19 20 0 13 -7 20 -20 20 -13 0 -20 7 -20 20 0 13 7 20 20 20 13 0 20 7 20 19
0 13 8 21 23 23 14 2 23 11 25 26 3 18 10 22 43 22 l39 0 0 -45 c0 -38 3 -45
19 -45 13 0 21 -8 23 -22 2 -17 9 -23 26 -22 20 1 22 -4 22 -48 0 -45 2 -48
25 -48 24 0 25 -3 25 -60 0 -57 -1 -60 -25 -60 -24 0 -25 -2 -25 -70 0 -68 -1
-70 -25 -70 -20 0 -25 -5 -25 -25 0 -20 5 -25 25 -25 18 0 25 -5 25 -20 0 -15
-7 -20 -26 -20 -20 0 -25 -4 -22 -22 3 -19 -2 -21 -42 -22 -40 -1 -45 -4 -44
-23 0 -16 -5 -23 -18 -23 -14 0 -18 8 -18 40 0 40 0 40 39 40 22 0 41 -5 44
-12 7 -22 19 -1 12 21 -5 17 -15 21 -54 21 -51 0 -78 -18 -68 -44 3 -8 -1 -17
-9 -20 -11 -4 -14 5 -14 44 0 46 -2 50 -22 47 -17 -1 -23 3 -23 18 0 15 6 19
23 18 17 -2 22 2 22 22 0 18 5 25 20 25 14 0 20 -7 20 -24 0 -22 4 -24 48 -22
42 1 47 3 46 24 -1 22 2 23 40 17 36 -5 39 -4 24 8 -14 11 -18 29 -18 76 0 54
-2 61 -19 61 -13 0 -21 8 -23 23 -2 14 -11 23 -25 25 -15 2 -23 10 -23 23 0
16 -7 19 -49 19 l-50 0 6 -70 c6 -69 6 -70 -18 -70 -22 0 -24 -3 -21 -45 l4
-45 -96 0 c-96 0 -96 0 -96 25 0 18 5 25 20 25 17 0 20 7 20 45 l0 45 50 0
c45 0 50 2 47 22 -1 16 5 23 23 28 16 4 21 8 13 13 -16 10 -53 -10 -53 -28 0
-9 -14 -15 -42 -17 -42 -3 -43 -4 -48 -43 -5 -37 -6 -38 -17 -19 -14 24 2 74
24 74 15 0 33 32 33 57 0 10 9 24 20 31 36 22 20 90 -19 79 -14 -3 -21 0 -21
9 0 8 10 14 25 14 20 0 25 5 25 25 0 18 -5 25 -19 25 -14 0 -21 8 -23 28 -2
23 -8 28 -36 30 -26 3 -35 -1 -39 -16 -3 -11 -13 -22 -24 -25 -11 -3 -19 -14
-19 -25 0 -15 -8 -21 -35 -24 l-35 -4 0 89 c0 75 2 88 15 83 23 -9 75 5 75 20
0 8 6 11 16 7 9 -3 27 6 46 26 17 17 34 31 39 31 10 0 12 31 3 54 -4 9 -18 16
-35 16 -18 0 -37 10 -52 26 -21 22 -30 25 -57 19 -24 -5 -29 -10 -19 -16 8 -5
24 -9 37 -9 15 0 22 -6 22 -20 0 -17 7 -20 45 -20 41 0 45 -2 45 -25 0 -20 -5
-25 -25 -25 -18 0 -25 -5 -25 -20 0 -13 -7 -20 -20 -20 -13 0 -20 7 -20 20 0
18 -7 20 -70 20 l-70 0 0 50 c0 49 0 50 33 52 l32 1 -32 4 c-53 7 -43 33 12
33 38 0 45 3 45 20 0 15 7 20 25 20 24 0 25 2 25 71 l0 71 43 -4 c37 -3 42 0
45 20 3 19 9 22 48 22 l44 0 0 -40 c0 -36 -2 -40 -25 -40 -20 0 -25 -5 -25
-25 0 -20 -5 -25 -26 -25 -24 0 -25 -2 -22 -47 3 -43 5 -48 26 -45 18 3 22 -2
22 -22 0 -25 2 -26 63 -26 l62 0 -3 -111 c-3 -85 0 -114 10 -120 18 -12 78
-11 78 1 0 6 -16 10 -35 10 l-35 0 0 110 0 110 25 0 c25 0 25 1 25 90 0 83 1
90 20 90 13 0 20 7 20 19 0 13 8 21 23 23 16 2 22 9 21 26 0 16 5 22 21 22 16
0 21 -6 21 -22 -1 -20 4 -23 39 -22 37 0 40 -2 40 -25 0 -23 4 -26 37 -25 20
1 44 4 55 9 17 7 17 8 -2 15 -18 8 -18 9 5 9 15 1 31 -4 38 -11 9 -9 12 -7 12
11 0 20 -4 22 -42 19 -36 -2 -44 -7 -46 -25 -2 -15 -10 -23 -23 -23 -15 0 -19
7 -19 39 0 39 0 40 -34 34 -19 -3 -36 -1 -40 6 -5 7 3 11 21 11 15 0 44 3 64
6 30 5 36 10 32 25 -4 15 0 19 21 19 19 0 26 -5 26 -20z m-2053 -57 c-3 -3
-11 -2 -17 2 -8 5 -7 11 2 22 12 15 13 14 16 -1 2 -10 1 -20 -1 -23z m1283 7
c0 -17 -7 -20 -40 -20 -33 0 -40 3 -40 20 0 17 7 20 40 20 33 0 40 -3 40 -20z
m-1300 -65 c0 -41 -2 -45 -25 -45 -20 0 -25 -5 -25 -26 0 -20 4 -25 23 -22 20
3 22 -2 25 -44 3 -46 2 -48 -22 -48 -26 0 -26 0 -26 -90 0 -83 -1 -90 -20 -90
-13 0 -20 -7 -20 -20 0 -15 -7 -20 -25 -20 -20 0 -25 -5 -25 -25 0 -18 -5 -25
-20 -25 -13 0 -20 -7 -20 -20 0 -15 -7 -20 -25 -20 -23 0 -25 -4 -25 -45 l0
-45 -45 0 c-41 0 -45 -2 -45 -25 0 -18 -5 -25 -20 -25 -13 0 -20 -7 -20 -20 0
-15 -7 -20 -25 -20 -20 0 -25 5 -25 24 0 19 4 23 20 19 18 -5 20 0 20 41 l0
46 -65 0 c-63 0 -65 1 -65 25 0 19 -5 25 -21 25 -20 0 -20 1 -2 31 43 73 178
243 260 325 140 141 193 183 231 184 31 0 32 -1 32 -45z m670 0 l0 -45 -65 0
c-63 0 -65 -1 -65 -25 0 -24 -2 -25 -70 -25 -68 0 -70 1 -70 25 0 23 4 25 45
25 38 0 45 3 45 20 0 17 7 20 45 20 41 0 45 2 45 25 0 23 4 25 45 25 l45 0 0
-45z m540 21 c0 -8 -10 -16 -22 -18 -15 -2 -24 -11 -26 -25 -3 -19 -10 -23
-43 -23 -35 0 -39 -3 -39 -25 0 -20 -5 -25 -25 -25 -18 0 -25 -5 -25 -20 0
-13 -7 -20 -19 -20 -15 0 -20 -10 -25 -45 -6 -36 -11 -45 -27 -45 -16 0 -19
-7 -19 -41 0 -32 -6 -47 -26 -65 -14 -13 -32 -24 -41 -24 -9 0 -14 -3 -11 -6
3 -3 22 -2 42 1 26 5 36 12 36 26 0 14 7 19 25 19 20 0 25 -5 25 -25 0 -20 -5
-25 -25 -25 -23 0 -25 -4 -25 -45 0 -39 -3 -45 -21 -45 -19 0 -20 -5 -17 -90
l3 -90 -47 0 -48 0 0 -45 c0 -41 -2 -45 -25 -45 -23 0 -25 4 -25 45 0 37 -3
45 -19 45 -20 0 -31 -34 -31 -95 0 -30 -3 -33 -35 -39 -42 -8 -55 -2 -55 25 0
16 -7 19 -40 19 -33 0 -40 -3 -40 -20 0 -11 7 -20 15 -20 9 0 12 6 9 15 -4 8
-2 15 4 15 5 0 12 -9 15 -20 3 -11 12 -20 21 -20 24 0 19 -27 -6 -34 -44 -11
-68 -7 -68 13 0 19 -23 35 -34 24 -3 -4 -6 -26 -6 -50 0 -39 -2 -43 -25 -43
-15 0 -25 -6 -25 -14 0 -18 -59 -29 -76 -15 -7 6 -19 9 -26 6 -8 -4 -7 -6 5
-6 22 -1 23 -49 1 -58 -25 -9 -37 12 -29 55 4 28 11 39 20 36 9 -4 15 4 17 23
2 22 7 27 23 25 25 -5 26 -5 28 -30 1 -16 4 -18 19 -8 24 15 23 36 -2 36 -15
0 -20 7 -20 25 0 18 5 25 19 25 13 0 21 8 23 23 2 18 10 23 46 25 23 2 42 7
42 12 0 4 -9 6 -20 3 -11 -3 -20 -1 -20 5 0 12 48 22 102 22 34 0 39 2 33 19
-5 18 0 20 42 23 42 3 48 6 51 27 3 22 7 23 58 19 30 -3 50 -2 44 2 -6 4 -14
26 -17 49 -5 39 -4 41 21 41 19 0 26 5 26 20 0 25 -27 27 -33 3 -2 -10 -8 1
-12 25 -6 32 -12 42 -26 42 -16 0 -19 8 -19 45 0 38 -3 45 -20 45 -17 0 -20 7
-20 45 0 38 3 45 20 45 13 0 20 7 20 20 0 17 7 20 45 20 41 0 45 2 45 25 0 23
4 25 44 25 39 0 45 3 48 23 2 14 11 23 26 25 12 2 22 10 22 18 0 8 7 14 16 14
14 0 14 -3 4 -15 -10 -12 -10 -15 4 -15 9 0 16 8 16 20 0 15 7 20 25 20 18 0
25 5 25 20 0 11 7 20 15 20 8 0 15 -7 15 -17 0 -9 3 -13 8 -9 7 8 9 13 11 46
1 16 8 20 41 20 28 0 40 -4 40 -14z m-835 -75 c-16 -15 -58 -17 -62 -3 -3 8 7
12 33 12 23 0 34 -4 29 -9z m1965 -6 c0 -8 -9 -15 -20 -15 -11 0 -20 7 -20 15
0 8 9 15 20 15 11 0 20 -7 20 -15z m-1760 -10 c0 -8 -7 -15 -16 -15 -14 0 -14
3 -4 15 7 8 14 15 16 15 2 0 4 -7 4 -15z m270 0 c0 -8 -9 -15 -20 -15 -11 0
-20 7 -20 15 0 8 9 15 20 15 11 0 20 -7 20 -15z m-560 -29 c0 -3 -4 -8 -10
-11 -5 -3 -10 -1 -10 4 0 6 5 11 10 11 6 0 10 -2 10 -4z m110 -16 c0 -17 -7
-20 -45 -20 -38 0 -45 3 -45 20 0 17 7 20 45 20 38 0 45 -3 45 -20z m360 -20
c0 -33 -3 -40 -20 -40 -13 0 -20 7 -20 20 0 15 -7 20 -25 20 -18 0 -25 5 -25
20 0 17 7 20 45 20 l45 0 0 -40z m490 20 c0 -11 -7 -20 -15 -20 -8 0 -15 9
-15 20 0 11 7 20 15 20 8 0 15 -9 15 -20z m1130 -1 c0 -12 8 -23 19 -26 15 -4
21 -15 23 -47 2 -34 7 -42 26 -44 21 -3 22 -8 22 -87 0 -49 4 -87 11 -90 6 -4
12 -5 13 -4 2 2 1 48 -2 103 -4 86 -7 99 -23 103 -12 4 -19 14 -19 30 0 32
-17 63 -35 63 -7 0 -17 5 -20 10 -4 6 10 10 34 10 33 0 40 -3 43 -22 2 -17 9
-22 26 -20 l22 3 0 -160 c0 -154 1 -161 20 -161 18 0 20 -7 20 -85 0 -78 -2
-85 -20 -85 -15 0 -20 -7 -20 -25 0 -24 -2 -24 -92 -27 -85 -3 -93 -5 -93 -23
0 -13 8 -21 23 -23 14 -2 22 -10 22 -23 0 -14 7 -19 25 -19 20 0 25 -5 25 -25
0 -23 4 -25 41 -25 24 0 38 -4 34 -10 -3 -5 -19 -10 -36 -10 -19 0 -29 -5 -29
-15 0 -11 11 -15 40 -15 36 0 40 3 40 25 0 18 5 25 20 25 15 0 20 -7 20 -25 0
-20 5 -25 25 -25 24 0 25 -2 25 -66 l0 -67 -45 5 c-42 5 -45 4 -45 -18 0 -20
-5 -23 -47 -26 -25 -2 -48 -8 -50 -14 -7 -22 90 -4 111 19 11 14 27 21 43 19
40 -6 53 14 53 80 0 64 -12 98 -35 98 -7 0 -17 5 -20 10 -4 6 10 10 34 10 37
0 41 -2 41 -26 0 -20 4 -25 23 -22 16 2 23 -3 25 -19 2 -15 10 -23 23 -23 16
0 19 -7 19 -44 0 -39 -2 -44 -20 -39 -16 4 -20 0 -20 -21 0 -21 -5 -26 -25
-26 -19 0 -25 -5 -25 -22 0 -22 -3 -23 -65 -20 -64 4 -65 3 -65 -22 0 -34 -37
-37 -42 -3 -3 20 -9 22 -70 25 -57 2 -68 6 -68 21 0 12 7 17 23 17 21 -1 22 3
22 67 0 63 1 67 23 67 20 0 22 5 22 45 0 41 -2 45 -25 45 -20 0 -25 5 -25 26
0 21 -4 25 -22 22 -17 -2 -22 -9 -20 -25 3 -22 0 -23 -62 -23 -64 0 -66 1 -66
26 0 21 4 24 20 19 16 -5 20 -2 20 19 0 23 -4 25 -47 28 l-48 3 3 43 4 42 -71
0 c-69 0 -71 1 -71 25 0 18 -5 25 -20 25 -13 0 -20 7 -20 20 0 15 -7 20 -25
20 -23 0 -25 4 -25 45 0 38 -3 45 -20 45 -20 0 -21 3 -24 75 -1 18 6 20 67 23
66 3 67 3 67 -23 0 -20 5 -25 25 -25 20 0 25 -5 25 -25 0 -20 5 -25 26 -25 26
0 26 -1 22 -65 -4 -62 -3 -65 19 -65 16 0 23 -6 23 -19 0 -15 9 -20 42 -23 60
-6 96 2 101 21 3 12 6 10 14 -9 11 -26 58 -58 69 -47 12 12 -5 37 -26 37 -13
0 -20 7 -20 20 0 13 -7 20 -20 20 -17 0 -19 8 -22 68 -3 60 -5 67 -25 70 -21
3 -22 7 -25 155 -4 212 -9 197 68 197 58 0 64 -2 64 -21z m-1940 -4 c0 -8 -7
-15 -16 -15 -14 0 -14 3 -4 15 7 8 14 15 16 15 2 0 4 -7 4 -15z m1580 0 c0 -8
-7 -15 -15 -15 -16 0 -20 12 -8 23 11 12 23 8 23 -8z m-1710 -40 c0 -18 -5
-25 -20 -25 -13 0 -20 -7 -20 -20 0 -17 -7 -20 -45 -20 -41 0 -45 -2 -45 -25
0 -20 -5 -25 -25 -25 -20 0 -25 5 -25 25 0 18 5 25 20 25 13 0 20 7 20 20 0
15 7 20 25 20 14 0 25 -5 25 -11 0 -5 5 -7 12 -3 9 6 9 9 0 12 -7 2 -12 15
-12 28 0 22 4 24 45 24 41 0 45 -2 45 -25z m900 -20 c0 -37 -3 -45 -19 -45
-15 0 -20 -10 -25 -45 l-7 -45 -62 0 -62 0 -3 45 c-2 42 -1 45 23 45 20 0 25
5 25 25 0 18 5 25 20 25 13 0 20 7 20 20 0 17 7 20 45 20 l45 0 0 -45z m1023
-48 c2 -64 -1 -87 -10 -87 -10 0 -13 25 -13 91 0 121 21 118 23 -4z m-1883 68
c0 -8 -7 -15 -16 -15 -14 0 -14 3 -4 15 7 8 14 15 16 15 2 0 4 -7 4 -15z
m2301 -92 l49 -63 -45 0 c-38 0 -45 3 -45 20 0 15 -7 20 -25 20 -24 0 -25 3
-25 62 l0 61 21 -19 c12 -10 43 -47 70 -81z m-2491 63 c0 -2 -7 -9 -15 -16
-12 -10 -15 -10 -15 4 0 9 7 16 15 16 8 0 15 -2 15 -4z m-53 -61 c0 -8 -4 -15
-9 -15 -4 0 -8 7 -8 15 0 8 4 15 8 15 5 0 9 -7 9 -15z m139 -65 c19 0 24 -5
24 -25 0 -23 -4 -25 -45 -25 l-45 0 0 44 c0 34 4 45 18 48 11 2 18 -4 20 -19
2 -17 10 -23 28 -23z m1008 -85 c-3 -35 9 -48 20 -20 9 24 26 17 26 -11 0 -24
-2 -25 -45 -18 l-45 6 0 -46 c0 -39 -3 -46 -20 -46 -18 0 -20 7 -20 85 l0 85
43 0 43 0 -2 -35z m-134 -31 c0 -8 -9 -14 -20 -14 -13 0 -20 7 -20 19 0 14 5
18 20 14 11 -3 20 -12 20 -19z m-50 -64 c0 -43 -1 -43 -49 -34 -36 8 -41 21
-8 26 14 2 23 11 25 26 6 40 32 26 32 -18z m453 20 c4 -15 0 -20 -14 -20 -12
0 -19 7 -19 20 0 11 6 20 14 20 7 0 16 -9 19 -20z m-43 -95 c0 -58 2 -65 20
-65 17 0 20 -7 20 -46 0 -38 -3 -45 -17 -42 -12 3 -17 12 -16 26 3 21 -1 22
-67 22 l-70 0 0 65 0 65 45 0 c38 0 45 3 45 20 0 13 7 20 20 20 18 0 20 -7 20
-65z m40 50 c0 -8 -7 -15 -15 -15 -9 0 -12 6 -9 15 4 8 10 15 15 15 5 0 9 -7
9 -15z m-490 -40 c0 -19 -5 -25 -21 -25 -12 0 -23 -8 -26 -20 -3 -11 -14 -20
-24 -20 -14 0 -19 -7 -19 -25 0 -20 5 -25 25 -25 18 0 25 5 25 20 0 13 7 20
20 20 19 0 20 -7 20 -110 l0 -110 -65 0 -65 0 0 65 c0 58 2 65 20 65 15 0 20
7 20 25 0 23 -4 25 -45 25 -34 0 -43 3 -39 14 3 7 11 13 17 13 42 -1 58 4 50
16 -4 6 -8 29 -9 50 0 34 2 37 29 37 24 0 27 -3 22 -20 -4 -12 -2 -20 5 -20 7
0 14 9 17 19 3 11 12 22 22 24 9 3 17 5 19 6 1 0 2 -10 2 -24z m-244 6 c-10
-15 -66 -19 -66 -4 0 8 13 13 36 13 19 0 33 -4 30 -9z m467 -37 c9 -10 -4 -34
-19 -34 -8 0 -14 9 -14 20 0 19 19 27 33 14z m72 -2 c6 -4 10 -27 10 -52 l0
-45 53 0 c28 1 52 0 52 -1 0 -1 -6 -14 -14 -30 -10 -19 -12 -33 -5 -45 14 -28
12 -29 -48 -27 -32 1 -68 -4 -80 -10 -32 -17 -33 -16 -33 33 0 41 2 45 25 45
20 0 25 5 25 25 0 20 -5 25 -25 25 -18 0 -25 5 -25 20 0 15 7 20 26 20 23 0
25 3 20 25 -6 25 0 31 19 17z m245 -18 c0 -8 -9 -14 -20 -14 -13 0 -20 7 -20
19 0 14 5 18 20 14 11 -3 20 -12 20 -19z m-50 12 c0 -11 -19 -15 -25 -6 -3 5
1 10 9 10 9 0 16 -2 16 -4z m-910 -45 c0 -5 -7 -11 -15 -15 -9 -3 -15 0 -15 9
0 8 7 15 15 15 8 0 15 -4 15 -9z m870 -101 c0 -13 -7 -20 -20 -20 -13 0 -20 7
-20 20 0 13 7 20 20 20 13 0 20 -7 20 -20z m1502 -65 c15 -38 15 -45 3 -45 -8
0 -15 -4 -15 -10 0 -5 6 -7 14 -4 17 6 21 0 31 -43 6 -31 5 -33 -19 -33 -19 0
-26 5 -26 20 0 17 -7 20 -45 20 l-45 0 0 49 c0 44 2 49 20 44 16 -4 20 0 20
21 0 20 5 26 23 26 18 0 26 -10 39 -45z m-1502 -26 c0 -12 -7 -19 -20 -19 -18
0 -20 -7 -20 -70 0 -68 -1 -70 -26 -70 -14 0 -23 -4 -19 -10 11 -18 50 6 53
34 3 25 6 27 34 21 28 -6 29 -5 23 15 -5 16 -3 21 5 18 8 -2 13 -26 14 -63 1
-54 3 -60 24 -63 21 -3 22 -8 22 -88 l0 -84 -65 0 -65 0 0 -45 c0 -41 -2 -45
-25 -45 -18 0 -25 5 -25 20 0 17 -7 20 -45 20 -38 0 -45 -3 -45 -20 0 -14 7
-20 21 -20 18 0 19 2 9 15 -10 12 -10 15 4 15 12 0 16 -10 16 -40 0 -36 -3
-40 -24 -40 -18 0 -25 6 -28 22 -5 34 -38 37 -38 4 0 -19 5 -26 20 -26 13 0
20 -7 20 -19 0 -15 10 -20 45 -25 36 -6 45 -11 45 -27 0 -16 7 -19 44 -19 34
0 46 -4 50 -17 3 -10 4 -1 1 20 -4 35 -2 38 18 35 18 -2 21 -8 19 -35 -2 -19
1 -33 7 -33 6 0 11 7 11 15 0 8 7 15 15 15 9 0 15 9 15 25 0 18 -5 25 -19 25
-13 0 -21 8 -23 23 -2 14 -10 22 -23 22 -15 0 -19 6 -17 23 3 17 -2 22 -18 22
-17 0 -19 4 -14 28 9 38 13 41 74 44 l55 3 0 73 0 72 38 0 37 0 0 -110 0 -110
-45 0 -45 0 0 -45 c0 -42 2 -45 26 -45 21 0 25 4 21 20 -5 19 0 20 70 20 71 0
74 -1 71 -22 -2 -17 -9 -23 -25 -22 -18 0 -23 -5 -23 -23 0 -18 -5 -23 -25
-23 -20 0 -25 -5 -25 -26 0 -21 -4 -25 -20 -21 -16 4 -20 0 -20 -19 0 -22 -4
-24 -45 -24 -41 0 -45 2 -45 25 0 20 -5 25 -25 25 -20 0 -25 -5 -25 -25 0 -18
5 -25 20 -25 11 0 20 -3 21 -7 1 -5 2 -35 3 -68 l1 -60 68 3 c66 4 67 4 67
-22 0 -19 -5 -26 -20 -26 -17 0 -20 -7 -20 -45 0 -41 2 -45 25 -45 18 0 23 -4
19 -15 -4 -8 -14 -16 -23 -17 -9 -1 13 -4 49 -7 58 -5 65 -9 68 -28 3 -19 -1
-23 -22 -23 -21 0 -26 -5 -26 -25 0 -20 -5 -25 -24 -25 -19 0 -23 -4 -19 -20
5 -18 0 -20 -44 -20 -45 0 -50 -2 -49 -22 1 -18 -4 -23 -21 -22 -18 0 -23 -5
-23 -23 0 -21 -4 -23 -49 -23 -44 0 -49 2 -44 20 4 16 0 20 -20 20 l-25 0 5
95 6 95 -52 0 c-48 0 -51 -2 -51 -25 0 -20 -5 -25 -24 -25 -19 0 -23 -4 -19
-20 5 -18 0 -20 -44 -20 -48 0 -50 -1 -45 -25 4 -22 1 -25 -22 -25 -19 0 -26
-5 -26 -20 0 -15 -7 -20 -26 -20 -20 0 -25 -4 -20 -16 3 -9 6 -20 6 -25 0 -5
18 -9 40 -9 33 0 40 -3 40 -20 0 -17 -7 -20 -40 -20 -33 0 -40 3 -40 20 0 17
-6 20 -42 19 -36 0 -39 -2 -20 -9 32 -13 27 -30 -9 -30 -26 0 -31 3 -26 20 5
18 0 20 -45 20 -45 0 -50 2 -45 20 4 16 0 20 -19 20 -19 0 -24 5 -24 25 0 23
-4 25 -45 25 l-45 0 0 68 c0 65 -1 69 -22 68 -18 -1 -23 4 -22 22 0 17 -5 22
-23 22 -21 0 -23 5 -23 45 0 33 -4 45 -15 45 -9 0 -15 9 -15 25 0 15 6 25 14
25 8 0 17 -11 20 -25 4 -16 13 -25 26 -25 18 0 20 7 20 70 0 66 1 70 23 67 18
-2 21 2 19 21 -3 20 1 22 42 22 l46 0 0 45 c0 41 2 45 25 45 18 0 25 5 25 19
0 14 -10 20 -44 25 -40 6 -44 10 -50 42 -9 46 -2 54 50 54 32 0 44 4 44 14 0
8 -4 18 -10 21 -5 3 -10 -1 -10 -9 0 -9 -7 -16 -15 -16 -11 0 -15 12 -15 49 0
78 10 111 32 111 16 0 19 -5 14 -25 -3 -13 -3 -43 0 -65 6 -39 7 -40 49 -40
37 0 41 -3 41 -22 -1 -18 4 -23 22 -22 15 0 22 -5 22 -17 0 -9 -4 -19 -9 -21
-4 -1 -12 -13 -15 -25 -6 -17 -3 -23 8 -23 9 0 16 9 16 20 0 14 7 20 24 20 22
0 24 3 19 42 -5 33 -2 44 13 55 19 14 19 15 -1 11 -14 -2 -21 -12 -23 -36 -2
-17 -5 -32 -7 -32 -2 0 -16 11 -31 25 -26 24 -26 25 -5 25 17 0 22 5 19 23 -2
18 1 21 20 19 18 -3 22 2 22 22 0 19 5 26 20 26 18 0 20 -7 20 -65 0 -63 1
-65 25 -65 24 0 25 2 25 65 0 63 1 65 25 65 18 0 25 5 25 20 0 11 7 20 15 20
8 0 15 -9 15 -20 0 -15 7 -20 25 -20 14 0 25 -6 25 -13 0 -10 -13 -13 -54 -9
-33 3 -56 0 -60 -7 -5 -8 23 -11 98 -11 l106 0 0 25 c0 18 -5 25 -20 25 -13 0
-20 7 -20 20 0 13 -7 20 -20 20 -17 0 -20 7 -20 45 0 41 -2 45 -25 45 -18 0
-25 5 -25 20 0 16 7 20 35 20 31 0 35 -3 35 -25 0 -14 5 -25 11 -25 5 0 8 4 4
9 -3 6 -3 28 1 50 5 31 11 41 25 41 16 0 19 8 19 45 l0 45 -39 0 c-32 0 -39 4
-43 23 -4 22 -3 22 84 19 79 -3 88 -5 88 -23z m-630 1 c0 -17 -7 -20 -45 -20
-26 0 -45 5 -45 11 0 6 -9 9 -20 6 -13 -3 -20 0 -20 9 0 11 16 14 65 14 58 0
65 -2 65 -20z m-88 -112 l3 -93 33 -1 c18 -1 35 3 38 8 3 4 -2 8 -10 8 -9 0
-16 7 -16 15 0 8 9 15 20 15 17 0 20 -7 20 -41 0 -44 1 -44 -69 -27 -8 2 -16
-3 -19 -11 -3 -10 2 -13 22 -9 22 4 26 2 26 -18 0 -16 -7 -24 -22 -26 -21 -3
-23 -9 -26 -65 -3 -55 -6 -63 -22 -63 -11 0 -20 7 -20 15 0 9 6 12 15 9 8 -4
15 -1 15 5 0 6 -6 11 -14 11 -10 0 -16 14 -18 43 -2 29 -8 42 -18 43 -8 1 -25
2 -37 2 -13 1 -23 7 -23 13 0 6 7 9 15 5 9 -3 15 0 15 8 0 16 -27 29 -41 20
-6 -3 -9 -13 -8 -22 1 -10 1 -47 0 -83 -1 -58 -4 -67 -21 -72 -18 -5 -20 -14
-20 -96 0 -90 0 -91 25 -91 20 0 25 5 25 25 0 20 5 25 25 25 18 0 25 5 25 20
0 11 7 20 15 20 11 0 15 -12 15 -45 l0 -45 -40 0 c-33 0 -40 -3 -40 -19 0 -13
-8 -21 -22 -23 -20 -3 -23 -10 -26 -50 l-3 -46 -45 0 -44 0 0 114 0 114 -45 0
-45 0 0 70 c0 68 1 70 25 70 20 0 25 -5 25 -24 0 -23 3 -24 55 -22 30 2 58 6
62 9 3 4 -1 7 -10 7 -25 0 -20 18 5 22 20 3 23 9 23 48 0 42 -2 45 -28 48 -22
3 -27 -1 -27 -17 0 -14 -6 -21 -20 -21 -14 0 -20 6 -18 18 2 11 -4 18 -19 20
-17 3 -23 10 -23 28 0 19 -5 24 -25 24 -21 0 -25 5 -25 29 0 44 11 91 22 91 5
0 6 -10 3 -21 -5 -16 -3 -20 6 -17 8 3 14 13 15 24 4 67 2 64 45 64 26 0 38
-4 34 -11 -4 -6 -13 -8 -21 -5 -8 3 -14 1 -14 -4 0 -5 -8 -11 -17 -13 -10 -3
1 -5 25 -6 38 -1 42 -3 42 -27 0 -22 4 -25 21 -21 19 5 21 2 17 -24 -3 -16 -1
-29 4 -29 4 0 8 16 8 35 0 28 -4 35 -19 35 -20 0 -31 26 -31 78 0 31 2 32 40
32 l40 0 0 -65 c0 -63 1 -65 25 -65 20 0 25 5 25 25 0 20 5 25 25 25 18 0 25
5 25 19 0 25 -10 31 -35 20 -13 -5 -15 -8 -5 -9 12 0 11 -3 -3 -11 -10 -6 -22
-20 -27 -32 -7 -18 -9 -14 -9 19 -1 34 3 43 20 47 12 3 18 10 15 16 -6 9 17
17 61 20 21 1 22 -3 25 -91z m1652 83 c3 -5 -1 -14 -9 -21 -13 -10 -15 -9 -15
9 0 21 14 28 24 12z m-1754 -5 c0 -3 -4 -8 -10 -11 -5 -3 -10 -1 -10 4 0 6 5
11 10 11 6 0 10 -2 10 -4z m710 -27 c0 -11 -7 -22 -16 -26 -8 -3 -19 -16 -24
-28 -6 -15 -19 -24 -39 -27 -30 -4 -31 -3 -31 34 0 34 3 38 25 38 18 0 25 5
25 18 0 15 6 18 30 14 21 -3 30 -10 30 -23z m110 -14 c10 -12 10 -15 -4 -15
-9 0 -16 7 -16 15 0 8 2 15 4 15 2 0 9 -7 16 -15z m882 -47 c-5 -77 -22 -85
-22 -10 0 43 4 62 13 62 8 0 11 -15 9 -52z m-1382 -13 c0 -24 2 -25 70 -25 68
0 70 -1 70 -25 0 -18 5 -25 20 -25 17 0 20 -7 20 -40 0 -33 -3 -40 -20 -40
-15 0 -19 6 -17 23 2 17 -3 22 -23 22 -20 0 -25 -5 -23 -22 3 -22 -1 -23 -67
-23 l-70 0 4 53 c2 28 4 69 5 90 1 43 31 55 31 12z m-90 0 c0 -8 -7 -15 -15
-15 -8 0 -15 7 -15 15 0 8 7 15 15 15 8 0 15 -7 15 -15z m1968 -114 c15 -1 22
-7 22 -21 0 -13 7 -20 19 -20 13 0 21 -8 23 -22 2 -15 11 -24 26 -26 14 -2 22
-10 22 -22 0 -12 -8 -20 -22 -22 -15 -2 -24 -11 -26 -25 -5 -33 -42 -31 -42 1
0 22 -3 23 -45 18 -43 -4 -45 -4 -45 22 0 21 -5 26 -25 26 -20 0 -25 5 -25 25
0 20 5 25 25 25 20 0 25 5 25 23 0 19 5 23 23 21 12 -1 32 -3 45 -3z m-2058
-91 c0 -25 -5 -40 -12 -40 -14 0 -16 48 -4 68 12 20 16 14 16 -28z m1220 0 c0
-33 -3 -40 -20 -40 -17 0 -20 7 -20 40 0 33 3 40 20 40 17 0 20 -7 20 -40z
m-1760 -20 c0 -13 -7 -20 -20 -20 -13 0 -20 7 -20 20 0 13 7 20 20 20 13 0 20
-7 20 -20z m-90 -44 c0 -19 -4 -23 -20 -19 -17 5 -20 0 -20 -26 0 -24 4 -31
20 -31 13 0 20 -7 20 -20 0 -13 -7 -20 -20 -20 -13 0 -20 -7 -20 -20 0 -29
-38 -27 -42 3 -2 16 -9 21 -25 19 -21 -3 -23 1 -23 47 0 44 -3 51 -20 51 -13
0 -20 7 -20 20 0 18 7 20 85 20 83 0 85 -1 85 -24z m351 9 c0 -5 -7 -12 -16
-13 -23 -5 -47 6 -40 19 8 13 56 8 56 -6z m869 -106 c0 -11 -7 -19 -16 -19
-11 0 -14 5 -10 16 3 9 6 20 6 25 0 6 5 7 10 4 6 -3 10 -15 10 -26z m1130 -39
c0 -15 7 -20 26 -20 26 0 26 0 22 -70 -3 -66 -2 -70 17 -68 18 3 20 -3 23 -64
2 -58 6 -68 21 -68 22 0 35 -59 25 -109 -6 -28 -4 -31 20 -31 21 0 26 -5 26
-26 0 -20 -4 -25 -22 -22 -17 2 -24 -3 -26 -19 -3 -19 1 -23 22 -23 19 0 26
-5 26 -20 0 -15 7 -20 26 -20 23 0 26 -3 22 -25 -4 -21 -1 -25 18 -25 17 0 24
-6 24 -20 0 -17 7 -20 45 -20 38 0 45 3 45 20 0 13 7 20 20 20 15 0 20 7 20
25 0 20 5 25 25 25 18 0 25 5 25 20 0 11 7 20 14 20 11 0 16 -14 18 -47 3 -41
6 -48 25 -51 21 -3 21 -4 6 -55 -8 -29 -18 -54 -22 -57 -3 -3 -8 -18 -9 -34
-5 -37 -22 -84 -63 -170 -29 -63 -33 -67 -46 -50 -12 17 -13 17 -13 -3 0 -12
5 -23 11 -25 5 -2 7 -11 3 -22 -5 -13 -9 -15 -15 -5 -4 8 -11 10 -16 6 -4 -4
-3 -15 3 -25 8 -13 3 -30 -24 -77 -62 -105 -208 -299 -247 -327 -5 -4 -45 -8
-87 -8 -71 0 -78 -2 -78 -20 0 -14 -7 -20 -23 -20 -18 0 -23 -5 -23 -23 1 -22
-1 -22 -112 -22 -110 0 -112 0 -112 -22 0 -22 -3 -23 -93 -23 l-92 0 3 -45 c4
-43 3 -45 -22 -45 -19 0 -26 -5 -26 -19 0 -13 -8 -21 -22 -23 -21 -3 -23 -9
-26 -70 l-3 -68 51 0 c46 0 50 -2 50 -24 0 -19 -9 -27 -42 -40 -32 -14 -43
-14 -49 -5 -12 21 -1 29 44 30 34 2 36 3 12 6 -16 3 -34 9 -40 14 -11 11 -28
12 -21 1 8 -14 -33 -52 -49 -46 -12 5 -15 24 -15 85 0 76 -1 80 -25 89 -21 8
-25 16 -25 50 0 38 -2 40 -29 40 -39 0 -61 9 -61 26 0 8 -4 14 -10 14 -5 0
-10 -13 -10 -30 0 -29 2 -30 45 -30 l45 0 0 -45 c0 -41 2 -45 25 -45 25 0 25
-1 25 -90 l0 -90 38 0 37 -1 -25 -14 c-33 -19 -50 -19 -50 0 0 9 -9 15 -25 15
-20 0 -25 -5 -25 -24 0 -27 -13 -32 -190 -76 -125 -31 -120 -30 -120 -9 0 13
-7 19 -22 18 -13 0 -17 -3 -10 -6 17 -7 15 -33 -3 -33 -11 0 -15 11 -15 40 0
33 -4 40 -19 40 -13 0 -20 9 -22 27 -7 48 1 73 22 73 17 0 19 7 19 65 0 63 -1
65 -26 65 -20 0 -25 4 -20 16 3 9 6 40 6 70 0 47 2 54 20 54 17 0 20 7 20 45
l0 45 133 1 c72 1 124 3 115 6 -10 2 -18 8 -18 11 0 4 -20 7 -45 7 -25 0 -45
-3 -45 -7 0 -5 -11 -8 -25 -8 -14 0 -25 3 -25 8 0 4 -19 7 -42 7 -51 0 -78
-22 -71 -58 4 -18 -1 -29 -18 -40 -19 -14 -23 -25 -23 -84 -1 -65 9 -93 33
-93 20 0 13 -76 -9 -95 -11 -10 -20 -29 -20 -42 0 -14 -6 -23 -15 -23 -8 0
-15 -9 -15 -20 0 -13 -7 -20 -20 -20 -13 0 -20 7 -20 20 0 13 7 20 19 20 18 0
35 33 23 44 -3 3 -36 6 -73 6 l-67 0 5 -59 c3 -33 3 -71 -1 -85 -7 -28 -26
-36 -26 -11 0 8 -9 20 -20 27 -26 16 -26 50 0 66 26 16 25 49 -2 77 -50 51
-52 55 -17 55 22 0 32 5 36 19 3 11 14 21 25 24 11 3 22 14 25 25 3 11 13 22
24 25 16 4 19 14 19 60 0 47 3 57 25 71 22 15 25 23 25 77 0 70 -12 99 -41 99
-26 0 -89 -64 -89 -90 0 -11 -7 -20 -15 -20 -8 0 -15 -9 -15 -20 0 -11 -4 -20
-10 -20 -5 0 -10 -7 -10 -15 0 -8 -7 -15 -15 -15 -9 0 -20 -11 -25 -25 -7 -19
-17 -25 -42 -26 -28 0 -30 -2 -13 -9 11 -5 32 -9 48 -9 22 -1 27 3 27 24 0 18
5 25 20 25 13 0 20 7 20 20 0 15 7 20 25 20 23 0 25 4 25 45 l0 45 41 0 c26 0
38 4 34 11 -4 6 -13 8 -21 5 -8 -3 -14 1 -14 9 0 8 8 15 19 15 22 0 31 -26 31
-87 0 -39 -2 -43 -25 -43 -24 0 -25 -2 -25 -70 0 -63 -2 -70 -20 -70 -13 0
-20 -7 -20 -20 0 -15 -7 -20 -25 -20 -20 0 -25 -5 -25 -25 0 -23 -4 -25 -45
-25 -38 0 -45 -3 -45 -20 0 -15 7 -20 25 -20 18 0 25 -5 25 -20 0 -13 7 -20
20 -20 15 0 20 -7 20 -25 0 -18 -5 -25 -20 -25 -17 0 -20 -7 -20 -45 0 -41 -2
-45 -25 -45 -18 0 -25 -5 -25 -20 0 -17 -7 -20 -40 -20 -47 0 -57 26 -12 33
25 4 25 4 -5 6 -27 1 -33 -3 -33 -19 0 -17 -7 -20 -39 -20 -70 0 -316 58 -431
102 -150 57 -417 197 -392 206 14 4 17 82 2 82 -5 0 -10 -13 -10 -30 0 -45
-35 -39 -109 16 -74 55 -78 74 -17 74 41 0 44 2 50 31 3 17 6 78 6 135 0 97 1
104 20 104 18 0 20 7 20 65 0 51 -3 65 -15 65 -11 0 -15 11 -15 36 l0 36 -50
-4 -50 -3 0 33 c0 25 4 32 20 32 15 0 20 7 20 25 0 23 4 25 45 25 41 0 45 -2
45 -25 0 -20 5 -25 25 -25 23 0 25 4 25 45 0 48 1 48 49 39 34 -7 43 -34 11
-34 -17 0 -20 -7 -20 -45 l0 -45 41 0 c25 0 38 4 34 10 -4 6 -11 8 -16 5 -5
-4 -9 1 -9 9 0 9 8 16 19 16 22 0 33 -41 24 -94 -8 -54 -39 -50 -49 7 -4 23
-9 34 -12 25 -5 -25 -32 -23 -32 2 0 17 -7 20 -45 20 l-45 0 0 -45 0 -45 41 0
c25 0 38 4 34 10 -4 6 -11 8 -16 5 -5 -4 -9 1 -9 9 0 9 9 16 20 16 13 0 20 -7
20 -20 0 -13 7 -20 20 -20 13 0 24 -10 30 -25 5 -14 15 -25 22 -25 14 0 42 76
33 90 -3 4 4 6 15 3 18 -5 20 0 20 41 0 46 0 46 34 46 62 0 96 11 96 31 0 12
-7 19 -20 19 -13 0 -20 7 -20 20 0 17 8 19 67 22 64 3 68 4 65 26 -3 18 2 22
22 22 21 0 26 5 26 25 0 20 -5 25 -25 25 -18 0 -25 5 -25 20 0 15 7 20 25 20
18 0 25 5 25 20 0 17 7 20 39 20 40 0 40 0 43 -42 2 -36 7 -44 26 -46 14 -2
22 -10 22 -23 0 -17 8 -19 70 -19 63 0 70 -2 70 -20 0 -17 -7 -20 -51 -20 -43
0 -50 -3 -45 -16 3 -9 6 -20 6 -25 0 -5 32 -9 70 -9 l70 0 -6 27 c-7 25 -6 26
26 20 18 -4 48 -7 66 -7 27 0 34 -4 34 -20 0 -15 7 -20 25 -20 20 0 25 -5 25
-25 0 -20 5 -25 24 -25 19 0 23 -4 19 -20 -4 -16 0 -20 21 -20 26 0 26 -1 26
-71 0 -65 1 -70 19 -64 18 5 20 0 23 -42 3 -41 6 -48 26 -51 14 -2 22 -10 22
-23 0 -17 8 -19 70 -19 63 0 70 2 70 20 0 13 7 20 20 20 17 0 20 -7 20 -45 0
-42 2 -45 26 -45 21 0 24 -4 19 -20 -6 -19 -2 -20 109 -20 l116 0 0 -45 c0
-34 4 -45 16 -45 11 0 14 6 9 20 -4 11 -2 20 4 20 6 0 11 -9 11 -20 0 -15 7
-20 25 -20 16 0 25 -6 25 -15 0 -13 -4 -14 -21 -5 -24 13 -34 8 -26 -15 5 -12
25 -15 98 -15 l91 0 -4 25 c-5 22 -2 25 23 25 22 0 29 5 29 20 0 11 7 20 15
20 8 0 15 -7 15 -15 0 -8 5 -15 11 -15 7 0 8 14 4 39 l-7 40 69 -3 c37 -2 47
-1 21 1 l-48 4 0 115 0 114 70 0 c63 0 70 2 70 20 0 17 7 20 46 20 41 0 45 2
42 23 -3 20 2 22 45 25 39 3 47 6 47 23 0 18 8 19 180 19 l180 0 0 23 c-1 20
-2 20 -11 5 -8 -14 -23 -18 -69 -18 -53 0 -60 2 -60 20 0 17 7 20 45 20 38 0
45 3 45 20 0 18 7 20 70 20 l70 0 -1 88 c0 62 -3 81 -9 65 -8 -20 -16 -23 -70
-23 l-60 0 0 48 0 48 -40 -1 c-35 0 -40 -3 -40 -22 0 -18 -6 -23 -25 -23 -20
0 -25 -5 -25 -25 0 -18 -5 -25 -20 -25 -13 0 -20 -7 -20 -20 0 -15 -7 -20 -25
-20 -20 0 -25 -5 -25 -25 0 -20 -5 -25 -25 -25 -20 0 -25 5 -25 25 0 23 -4 25
-45 25 -42 0 -45 2 -45 26 0 21 -4 25 -20 21 -16 -4 -20 0 -20 19 0 19 -5 24
-25 24 -20 0 -25 5 -25 26 0 21 -4 25 -20 21 -16 -4 -20 0 -20 19 0 19 -5 24
-25 24 -24 0 -25 2 -25 70 0 68 1 70 25 70 18 0 25 5 25 20 0 17 7 20 45 20
41 0 45 2 45 25 0 24 -2 25 -65 25 l-65 0 0 45 c0 41 -2 45 -25 45 -18 0 -25
5 -25 20 0 15 7 20 25 20 24 0 25 2 25 65 0 59 2 65 20 65 14 0 20 -6 18 -17
-3 -15 7 -18 65 -21 64 -3 67 -4 67 -27 0 -16 6 -25 15 -25 18 0 20 21 3 38
-9 9 -7 12 10 12 20 0 22 -5 22 -65 l0 -65 45 0 c41 0 45 -2 45 -25 0 -18 5
-25 20 -25 13 0 20 -7 20 -20 0 -15 7 -20 25 -20 20 0 25 -5 25 -25 0 -23 4
-25 45 -25 38 0 45 -3 45 -20 0 -13 7 -20 20 -20 17 0 20 7 20 46 0 41 -2 45
-20 39 -18 -6 -20 -2 -20 44 0 48 -2 51 -25 51 -18 0 -25 5 -25 20 0 17 -7 20
-45 20 -41 0 -45 2 -45 25 0 20 -5 25 -24 25 -24 0 -25 1 -20 65 4 64 4 65
-21 65 -20 0 -25 5 -25 25 0 20 5 25 26 25 25 0 25 2 24 63 -4 108 -2 117 20
117 13 0 20 7 20 20 0 15 7 20 25 20 18 0 25 -5 25 -20z m-2050 -5 c0 -8 -4
-15 -10 -15 -5 0 -10 7 -10 15 0 8 5 15 10 15 6 0 10 -7 10 -15z m964 -40 c-5
-12 -10 -13 -20 -4 -19 15 -18 19 6 19 13 0 18 -5 14 -15z m586 -50 c0 -58 -2
-65 -20 -65 -18 0 -20 7 -20 65 0 58 2 65 20 65 18 0 20 -7 20 -65z m-1710 5
c0 -13 -7 -20 -20 -20 -15 0 -20 -7 -20 -25 0 -20 -5 -25 -25 -25 -23 0 -25
-4 -25 -45 0 -33 -4 -45 -15 -45 -17 0 -20 16 -5 25 15 9 12 25 -5 25 -12 0
-15 -17 -15 -95 l0 -95 45 0 c41 0 45 2 45 25 0 24 2 25 65 25 l65 0 0 -60 c0
-39 -5 -62 -14 -67 -7 -4 -16 -15 -19 -23 -4 -12 -6 -11 -6 3 -1 14 -10 17
-51 17 -47 0 -50 -2 -50 -25 0 -18 -5 -25 -20 -25 -13 0 -20 -7 -20 -20 0 -18
-7 -20 -70 -20 -68 0 -70 -1 -70 -25 0 -23 -4 -25 -45 -25 -38 0 -45 -3 -45
-20 0 -18 -7 -20 -65 -20 -63 0 -65 -1 -65 -25 0 -23 -4 -25 -45 -25 -38 0
-45 -3 -45 -20 0 -19 -7 -20 -90 -20 l-90 0 0 65 0 65 44 0 c39 0 45 3 48 23
3 21 6 22 88 17 84 -5 85 -5 55 -20 -24 -12 -31 -23 -33 -53 -2 -28 0 -37 12
-37 12 0 16 10 16 35 0 28 4 35 20 35 17 0 20 7 20 45 0 41 2 45 25 45 18 0
25 5 25 20 0 18 7 20 65 20 63 0 65 1 65 25 0 18 5 25 20 25 11 0 20 -4 20
-10 0 -5 11 -10 25 -10 17 0 29 8 37 25 6 14 15 25 20 25 4 0 8 5 8 10 0 6 -9
10 -20 10 -15 0 -20 -7 -20 -25 0 -20 -5 -25 -26 -25 -25 0 -26 2 -20 38 3 20
6 52 6 70 0 25 4 32 20 32 17 0 20 7 20 45 0 38 3 45 20 45 13 0 20 7 20 20 0
15 7 20 25 20 20 0 25 5 25 25 0 20 5 25 25 25 18 0 25 5 25 20 0 13 7 20 20
20 13 0 20 -7 20 -20z m-540 -90 c0 -13 -7 -20 -20 -20 -13 0 -20 7 -20 20 0
13 7 20 20 20 13 0 20 -7 20 -20z m900 0 c0 -13 -7 -20 -20 -20 -13 0 -20 7
-20 20 0 13 7 20 20 20 13 0 20 -7 20 -20z m-948 -72 c2 -36 7 -44 26 -46 18
-3 22 -10 22 -43 l0 -39 -90 0 -90 0 0 40 c0 36 3 40 25 40 20 0 25 5 25 25 0
18 5 25 20 25 13 0 20 7 20 20 0 13 7 20 19 20 16 0 20 -8 23 -42z m88 22 c0
-13 -7 -20 -20 -20 -13 0 -20 7 -20 20 0 13 7 20 20 20 13 0 20 -7 20 -20z
m2210 -25 c0 -42 2 -45 26 -45 19 0 25 -5 22 -17 -2 -13 -15 -19 -46 -21 -34
-3 -42 -7 -42 -23 0 -12 -7 -19 -20 -19 -17 0 -20 7 -20 40 0 33 3 40 20 40
17 0 20 7 20 45 0 38 3 45 20 45 17 0 20 -7 20 -45z m-2070 -35 l0 -50 -70 0
c-68 0 -70 1 -70 25 0 20 5 25 25 25 18 0 25 5 25 19 0 16 8 21 43 24 23 2 43
4 45 5 1 1 2 -20 2 -48z m580 -25 c0 -48 -3 -65 -14 -65 -7 0 -16 14 -20 32
-8 43 3 98 20 98 11 0 14 -16 14 -65z m90 0 c0 -58 -2 -65 -20 -65 -16 0 -20
7 -20 34 0 54 11 96 26 96 11 0 14 -17 14 -65z m1630 1 c0 -9 -9 -14 -20 -13
-11 1 -20 7 -20 14 0 7 9 13 20 13 11 0 20 -6 20 -14z m-1670 -116 c0 -29 -4
-40 -15 -40 -8 0 -15 8 -15 18 0 9 -3 27 -6 40 -5 18 -2 22 15 22 18 0 21 -6
21 -40z m-42 -22 c-2 -15 -11 -24 -25 -26 -19 -3 -23 1 -23 22 0 21 5 26 26
26 21 0 25 -4 22 -22z m2552 7 c0 -8 -7 -15 -15 -15 -8 0 -15 7 -15 15 0 8 7
15 15 15 8 0 15 -7 15 -15z m-2640 -50 c0 -20 -5 -25 -25 -25 -20 0 -25 -5
-25 -25 0 -18 -5 -25 -20 -25 -13 0 -20 -7 -20 -20 0 -15 -7 -20 -25 -20 -23
0 -25 4 -25 45 0 34 4 45 16 45 11 0 14 -6 9 -21 -5 -16 -3 -20 6 -17 8 3 13
13 13 22 -1 11 6 16 22 16 19 0 24 5 24 25 0 20 5 25 25 25 20 0 25 -5 25 -25z
m2630 13 c0 -6 -5 -38 -12 -70 -10 -50 -15 -58 -35 -58 -22 0 -23 4 -23 70 l0
70 35 0 c20 0 35 -5 35 -12z m-2550 -18 c0 -5 -7 -10 -15 -10 -8 0 -15 5 -15
10 0 6 7 10 15 10 8 0 15 -4 15 -10z m140 -155 c0 -127 -1 -135 -19 -135 -13
0 -21 8 -23 23 -2 14 -11 23 -25 25 -22 3 -23 7 -23 113 l0 109 45 0 45 0 0
-135z m-140 65 c0 -11 -7 -20 -15 -20 -8 0 -15 9 -15 20 0 11 7 20 15 20 8 0
15 -9 15 -20z m-220 -85 c0 -18 -5 -25 -20 -25 -18 0 -20 -7 -20 -65 0 -58 2
-65 20 -65 12 0 20 7 20 16 0 10 -6 14 -15 10 -8 -3 -15 -1 -15 4 0 6 18 10
39 10 29 0 41 -5 44 -17 2 -10 2 -1 0 20 -4 32 -2 37 16 37 16 0 21 6 21 25 0
20 5 25 25 25 27 0 35 -26 13 -48 -8 -8 -8 -12 -1 -12 17 0 24 29 17 66 -5 30
-4 34 15 34 19 0 21 -6 21 -65 0 -63 -1 -65 -25 -65 -18 0 -25 -5 -25 -20 0
-13 -7 -20 -20 -20 -15 0 -20 -7 -20 -25 0 -18 -5 -25 -19 -25 -15 0 -20 -10
-26 -46 -5 -35 -10 -44 -23 -42 -12 2 -18 15 -20 46 -3 39 -2 42 23 42 22 0
26 4 23 23 -2 14 -10 22 -23 22 -13 0 -21 -8 -23 -22 -2 -15 -10 -23 -23 -23
-16 0 -19 -7 -19 -45 0 -38 3 -45 20 -45 13 0 20 -7 20 -20 0 -13 -7 -20 -20
-20 -15 0 -20 -7 -20 -25 0 -20 -5 -25 -25 -25 l-25 0 0 175 c0 116 -4 175
-11 175 -7 0 -9 -50 -7 -150 2 -83 0 -150 -4 -150 -5 0 -8 14 -8 30 0 17 -3
30 -7 31 -5 0 -18 2 -30 5 -12 2 -23 -2 -27 -11 -3 -10 -19 -15 -46 -15 -36 0
-40 2 -40 25 0 23 -4 25 -45 25 -38 0 -45 3 -45 20 0 13 -7 20 -20 20 -17 0
-20 7 -20 45 0 38 3 45 20 45 13 0 20 7 20 20 0 19 7 20 115 20 l115 0 0 25
c0 23 4 25 45 25 41 0 45 2 45 25 0 18 5 25 20 25 15 0 20 -7 20 -25z m1448
-2 c3 -21 0 -23 -47 -23 -48 0 -51 2 -51 26 0 24 2 25 48 22 40 -3 47 -6 50
-25z m-908 -68 l0 -45 -40 0 -40 0 0 45 0 45 40 0 40 0 0 -45z m818 -112 c-3
-63 -5 -68 -25 -67 -22 1 -23 -3 -23 -68 l0 -68 -45 0 c-38 0 -45 -3 -45 -20
0 -15 -7 -20 -25 -20 -18 0 -25 5 -25 20 0 18 -7 20 -71 20 -67 0 -70 1 -67
23 2 18 -1 21 -19 19 -19 -3 -23 2 -23 22 0 21 5 26 25 26 23 0 25 4 25 45 l0
45 45 0 c42 0 45 2 45 26 0 21 4 25 23 22 16 -2 21 -9 20 -26 -2 -17 2 -22 22
-22 20 0 25 5 25 25 0 23 4 25 46 25 41 0 46 2 41 20 -4 17 0 20 24 20 l30 0
-3 -67z m-1490 -135 c-4 -33 -48 -34 -48 -2 0 19 5 24 26 24 21 0 25 -4 22
-22z m-678 -190 l-1 -33 -14 25 c-18 32 -18 40 0 40 10 0 15 -10 15 -32z m500
-58 c0 -47 -2 -50 -25 -50 l-25 0 0 -169 0 -169 -37 -5 c-28 -3 -43 0 -58 14
-11 11 -14 19 -7 19 6 0 12 11 12 25 0 18 -5 25 -20 25 -11 0 -20 7 -20 15 0
9 6 15 13 14 26 -3 36 2 42 21 3 11 12 20 20 20 7 0 20 14 29 30 12 26 12 30
0 30 -8 0 -14 -10 -14 -25 0 -20 -5 -25 -25 -25 -18 0 -25 -5 -25 -20 0 -15
-7 -20 -25 -20 -24 0 -25 3 -27 63 -1 49 -2 53 -5 20 -5 -48 -33 -63 -33 -18
0 20 -5 25 -25 25 -23 0 -25 4 -25 45 l0 45 48 0 47 0 -3 45 -4 45 46 0 c42 0
46 2 46 25 0 23 3 25 50 25 l50 0 0 -50z m-280 -20 c0 -13 -7 -20 -20 -20 -13
0 -20 7 -20 20 0 13 7 20 20 20 13 0 20 -7 20 -20z m290 -90 c-32 -25 -50 -25
-50 0 0 16 7 20 38 20 l37 0 -25 -20z m1870 -227 c0 -28 -12 -39 -47 -46 -25
-5 -33 -3 -33 8 0 9 10 15 26 15 21 0 24 4 19 20 -5 16 -2 20 14 20 13 0 21
-6 21 -17z m-511 -490 c1 -7 -3 -13 -9 -13 -5 0 -10 15 -9 33 0 27 2 29 9 12
5 -11 9 -26 9 -32z m-249 -3 c0 -13 -7 -20 -20 -20 -13 0 -20 7 -20 20 0 13 7
20 20 20 13 0 20 -7 20 -20z m180 5 c0 -8 -9 -15 -20 -15 -11 0 -20 7 -20 15
0 8 9 15 20 15 11 0 20 -7 20 -15z"/>
<path d="M140 2142 c0 -14 6 -22 16 -22 14 0 15 3 3 18 -7 9 -15 19 -16 21 -2
2 -3 -5 -3 -17z"/>
<path d="M140 2053 c0 -10 4 -14 8 -8 4 6 11 13 16 18 5 4 2 7 -7 7 -10 0 -17
-8 -17 -17z"/>
<path d="M92 1938 l1 -43 4 37 c3 24 10 38 21 41 12 3 11 5 -5 6 -21 1 -23 -3
-21 -41z"/>
<path d="M2980 3570 c0 -6 7 -10 15 -10 8 0 15 2 15 4 0 2 -7 6 -15 10 -8 3
-15 1 -15 -4z"/>
<path d="M3020 3539 c0 -11 5 -17 10 -14 6 3 10 13 10 21 0 8 -4 14 -10 14 -5
0 -10 -9 -10 -21z"/>
<path d="M2300 3132 c0 -11 -8 -26 -17 -32 -17 -10 -17 -11 1 -8 27 4 44 34
28 50 -9 9 -12 7 -12 -10z"/>
<path d="M2227 3079 c-4 -14 0 -19 14 -19 22 0 26 25 5 33 -8 3 -16 -2 -19
-14z"/>
<path d="M2523 2750 c0 -25 2 -35 4 -22 2 12 2 32 0 45 -2 12 -4 2 -4 -23z"/>
<path d="M2480 2683 c0 -10 4 -14 8 -8 4 6 11 13 16 18 5 4 2 7 -7 7 -10 0
-17 -8 -17 -17z"/>
<path d="M2391 2638 c1 -17 3 -18 6 -6 3 11 17 18 41 21 l37 4 -42 1 c-39 2
-43 0 -42 -20z"/>
<path d="M1490 3494 c0 -14 3 -14 15 -4 8 7 15 14 15 16 0 2 -7 4 -15 4 -8 0
-15 -7 -15 -16z"/>
<path d="M1745 3350 c-3 -5 -1 -10 4 -10 6 0 11 5 11 10 0 6 -2 10 -4 10 -3 0
-8 -4 -11 -10z"/>
<path d="M1701 3285 c8 -8 78 -8 87 0 2 2 -19 5 -47 6 -32 3 -47 1 -40 -6z"/>
<path d="M1746 3234 c-9 -25 -7 -56 4 -49 6 3 10 17 10 30 0 13 6 26 13 28 7
4 6 6 -4 6 -9 1 -20 -6 -23 -15z"/>
<path d="M1690 3125 c-10 -12 -10 -15 4 -15 9 0 16 7 16 15 0 8 -2 15 -4 15
-2 0 -9 -7 -16 -15z"/>
<path d="M1747 3113 c-11 -10 -8 -33 3 -33 6 0 10 6 10 14 0 8 6 17 13 19 8 4
6 6 -4 6 -9 1 -19 -2 -22 -6z"/>
<path d="M1701 2954 c0 -11 3 -14 6 -6 3 7 2 16 -1 19 -3 4 -6 -2 -5 -13z"/>
<path d="M1620 2906 c0 -16 18 -31 27 -22 3 3 -2 12 -11 21 -14 14 -16 14 -16
1z"/>
<path d="M1530 2805 c0 -33 8 -43 23 -28 4 3 2 12 -4 20 -9 10 -8 17 1 28 10
12 10 15 -4 15 -12 0 -16 -9 -16 -35z"/>
<path d="M1228 2643 c7 -3 16 -2 19 1 4 3 -2 6 -13 5 -11 0 -14 -3 -6 -6z"/>
<path d="M1590 3386 c0 -9 5 -16 10 -16 6 0 10 4 10 9 0 6 -4 13 -10 16 -5 3
-10 -1 -10 -9z"/>
<path d="M3161 2864 c0 -11 3 -14 6 -6 3 7 2 16 -1 19 -3 4 -6 -2 -5 -13z"/>
<path d="M3096 2853 c-6 -14 -5 -15 5 -6 7 7 10 15 7 18 -3 3 -9 -2 -12 -12z"/>
<path d="M3123 2833 c9 -2 23 -2 30 0 6 3 -1 5 -18 5 -16 0 -22 -2 -12 -5z"/>
<path d="M3133 2813 c-20 -8 -15 -23 7 -23 11 0 20 7 20 15 0 15 -6 17 -27 8z"/>
<path d="M3410 2576 c-8 -11 -9 -20 -1 -33 9 -16 10 -16 11 5 0 15 6 22 21 22
11 0 17 5 14 10 -9 14 -31 12 -45 -4z"/>
<path d="M2005 3350 c-17 -18 -17 -20 -1 -20 9 0 19 7 23 15 9 25 -2 27 -22 5z"/>
<path d="M1972 3285 c0 -16 2 -22 5 -12 2 9 2 23 0 30 -3 6 -5 -1 -5 -18z"/>
<path d="M1933 3233 c15 -2 39 -2 55 0 15 2 2 4 -28 4 -30 0 -43 -2 -27 -4z"/>
<path d="M2044 3129 c-10 -17 13 -36 27 -22 12 12 4 33 -11 33 -5 0 -12 -5
-16 -11z"/>
<path d="M1835 2817 c-4 -10 -5 -21 -1 -24 10 -10 18 4 13 24 -4 17 -4 17 -12
0z"/>
<path d="M1802 2750 c0 -19 2 -27 5 -17 2 9 2 25 0 35 -3 9 -5 1 -5 -18z"/>
<path d="M1785 2691 c11 -5 26 -6 33 -4 6 3 12 0 12 -6 0 -6 5 -11 10 -11 6 0
10 7 10 15 0 11 -11 15 -42 14 -32 0 -38 -2 -23 -8z"/>
<path d="M3816 2673 c-6 -14 -5 -15 5 -6 7 7 10 15 7 18 -3 3 -9 -2 -12 -12z"/>
<path d="M2202 2438 c-7 -7 -12 -19 -11 -27 0 -10 4 -7 9 6 6 15 15 21 25 17
8 -3 15 -1 15 5 0 15 -23 14 -38 -1z"/>
<path d="M2265 2350 c8 -12 85 -10 85 2 0 4 -21 8 -46 8 -28 0 -43 -4 -39 -10z"/>
<path d="M2030 2185 c0 -20 -5 -25 -25 -25 -18 0 -25 -5 -25 -20 0 -11 2 -20
5 -20 3 0 14 9 25 20 11 11 25 20 30 20 6 0 10 -9 10 -20 0 -11 5 -20 10 -20
6 0 10 20 10 45 0 38 -3 45 -20 45 -15 0 -20 -7 -20 -25z"/>
<path d="M1762 2163 c-2 -40 0 -43 24 -43 14 0 23 4 19 10 -3 6 -12 10 -20 10
-8 0 -15 14 -18 33 -3 28 -4 26 -5 -10z"/>
<path d="M1680 2156 c0 -2 7 -9 15 -16 12 -10 15 -10 15 4 0 9 -7 16 -15 16
-8 0 -15 -2 -15 -4z"/>
<path d="M1940 2051 c0 -12 9 -20 23 -23 20 -4 23 -1 19 19 -5 29 -42 32 -42
4z"/>
<path d="M2030 2050 c0 -17 7 -20 45 -20 38 0 45 3 45 20 0 17 -7 20 -45 20
-38 0 -45 -3 -45 -20z"/>
<path d="M1800 1960 c0 -15 7 -20 25 -20 18 0 25 5 25 20 0 15 -7 20 -25 20
-18 0 -25 -5 -25 -20z"/>
<path d="M1973 1945 c-8 -9 -9 -16 -3 -20 6 -3 13 1 16 10 9 21 2 26 -13 10z"/>
<path d="M1800 1865 c0 -20 5 -25 25 -25 20 0 25 5 25 25 0 20 -5 25 -25 25
-20 0 -25 -5 -25 -25z"/>
<path d="M1580 1780 c0 -24 35 -28 44 -4 9 23 8 24 -19 24 -18 0 -25 -5 -25
-20z"/>
<path d="M1630 1740 c0 -13 7 -20 20 -20 13 0 20 7 20 20 0 13 -7 20 -20 20
-13 0 -20 -7 -20 -20z"/>
<path d="M2389 1758 c0 -2 -2 -22 -5 -45 -4 -40 -2 -43 21 -43 23 0 25 4 25
45 0 38 -3 45 -20 45 -11 0 -20 -1 -21 -2z"/>
<path d="M1688 1723 c7 -3 16 -2 19 1 4 3 -2 6 -13 5 -11 0 -14 -3 -6 -6z"/>
<path d="M1590 1706 c0 -2 7 -9 15 -16 12 -10 15 -10 15 4 0 9 -7 16 -15 16
-8 0 -15 -2 -15 -4z"/>
<path d="M1717 1651 c-6 -24 0 -31 25 -31 10 0 18 -7 18 -16 0 -10 4 -12 13
-7 6 4 15 8 19 8 21 0 17 15 -5 15 -22 0 -27 5 -27 25 0 31 -35 35 -43 6z"/>
<path d="M2458 1639 c-17 -18 -17 -19 2 -19 13 0 20 7 20 20 0 24 0 24 -22 -1z"/>
<path d="M2571 1644 c0 -11 3 -14 6 -6 3 7 2 16 -1 19 -3 4 -6 -2 -5 -13z"/>
<path d="M1679 1611 c7 -5 17 -15 22 -22 6 -10 9 -8 9 9 0 16 -6 22 -22 22
-17 0 -19 -3 -9 -9z"/>
<path d="M2340 1601 c0 -13 -8 -21 -22 -23 -15 -2 -23 -10 -23 -23 0 -13 8
-21 23 -23 18 -3 22 1 22 22 0 21 5 26 25 26 18 0 25 5 25 20 0 15 -7 20 -25
20 -18 0 -25 -5 -25 -19z"/>
<path d="M2520 1603 c0 -11 3 -14 8 -7 4 6 14 14 22 17 10 4 8 6 -7 6 -16 1
-23 -5 -23 -16z"/>
<path d="M2412 1595 c-11 -12 -10 -15 3 -15 8 0 15 7 15 15 0 18 -2 18 -18 0z"/>
<path d="M1790 1566 c0 -9 5 -16 10 -16 6 0 10 4 10 9 0 6 -4 13 -10 16 -5 3
-10 -1 -10 -9z"/>
<path d="M1845 1570 c3 -5 8 -10 11 -10 2 0 4 5 4 10 0 6 -5 10 -11 10 -5 0
-7 -4 -4 -10z"/>
<path d="M2381 1554 c0 -11 3 -14 6 -6 3 7 2 16 -1 19 -3 4 -6 -2 -5 -13z"/>
<path d="M2430 1555 c0 -8 2 -15 4 -15 2 0 6 7 10 15 3 8 1 15 -4 15 -6 0 -10
-7 -10 -15z"/>
<path d="M1728 1533 c7 -3 16 -2 19 1 4 3 -2 6 -13 5 -11 0 -14 -3 -6 -6z"/>
<path d="M1761 1514 c0 -11 3 -14 6 -6 3 7 2 16 -1 19 -3 4 -6 -2 -5 -13z"/>
<path d="M1828 1523 c12 -2 22 -11 22 -19 0 -8 9 -14 19 -14 12 0 21 -8 24
-22 2 -13 5 -4 6 20 l1 42 -47 -1 c-27 -1 -38 -4 -25 -6z"/>
<path d="M2398 1523 c7 -3 16 -2 19 1 4 3 -2 6 -13 5 -11 0 -14 -3 -6 -6z"/>
<path d="M1560 2535 c0 -8 5 -15 10 -15 6 0 10 7 10 15 0 8 -4 15 -10 15 -5 0
-10 -7 -10 -15z"/>
<path d="M1300 2501 c0 -24 13 -33 34 -25 27 10 20 44 -9 44 -18 0 -25 -5 -25
-19z"/>
<path d="M1522 2480 c0 -19 2 -27 5 -17 2 9 2 25 0 35 -3 9 -5 1 -5 -18z"/>
<path d="M1571 2437 c-15 -19 -2 -29 15 -12 8 7 14 16 14 19 0 11 -17 6 -29
-7z"/>
<path d="M1350 2228 c0 -11 -8 -18 -20 -18 -11 0 -20 -4 -20 -9 0 -5 9 -11 20
-14 13 -3 20 0 20 9 0 8 10 14 25 14 16 0 25 6 25 16 0 14 -3 14 -16 3 -13
-10 -17 -10 -25 2 -7 11 -9 11 -9 -3z"/>
<path d="M1400 2149 c0 -5 5 -7 10 -4 6 3 10 8 10 11 0 2 -4 4 -10 4 -5 0 -10
-5 -10 -11z"/>
<path d="M3097 1723 c-12 -11 -8 -55 4 -48 6 4 8 13 5 21 -4 10 4 14 30 14 21
0 33 4 29 10 -7 11 -58 14 -68 3z"/>
<path d="M3109 1653 c-1 -10 -1 -21 -1 -24 1 -3 -9 -5 -21 -5 -14 1 -23 -6
-25 -19 -4 -17 -2 -18 13 -5 14 11 18 11 25 0 7 -11 11 -10 26 4 15 15 15 19
3 28 -11 7 -11 11 -1 15 6 2 10 9 6 14 -9 15 -24 10 -25 -8z"/>
<path d="M3150 1645 c0 -20 5 -25 25 -25 20 0 25 5 25 25 0 20 -5 25 -25 25
-20 0 -25 -5 -25 -25z"/>
<path d="M3586 1464 c-4 -11 -16 -15 -43 -12 -35 3 -38 1 -39 -22 -1 -16 0
-18 3 -5 3 17 10 20 48 17 40 -4 45 -2 45 17 0 25 -6 27 -14 5z"/>
<path d="M3650 1463 c0 -17 6 -23 23 -23 16 0 18 3 8 9 -7 5 -17 15 -22 22 -6
10 -9 8 -9 -8z"/>
<path d="M3230 1382 c0 -15 5 -33 12 -40 15 -15 38 -16 38 -2 0 6 -9 10 -20
10 -15 0 -20 7 -20 25 0 20 5 25 25 25 18 0 25 -5 25 -20 0 -11 5 -20 10 -20
14 0 13 23 -2 38 -7 7 -25 12 -40 12 -24 0 -28 -4 -28 -28z"/>
<path d="M3546 1375 c4 -8 8 -15 10 -15 2 0 4 7 4 15 0 8 -4 15 -10 15 -5 0
-7 -7 -4 -15z"/>
<path d="M3560 1343 c0 -5 24 -7 52 -5 89 5 97 9 21 11 -40 0 -73 -2 -73 -6z"/>
<path d="M3636 1272 c-2 -4 10 -8 27 -9 17 -1 34 -8 39 -15 5 -9 8 -10 8 -1 0
6 -5 15 -12 19 -17 11 -57 14 -62 6z"/>
<path d="M3700 1180 c0 -6 7 -10 15 -10 8 0 15 2 15 4 0 2 -7 6 -15 10 -8 3
-15 1 -15 -4z"/>
<path d="M1399 1160 c-5 -32 -2 -35 41 -35 39 0 45 -3 48 -22 3 -19 -1 -23
-22 -23 -24 0 -26 -3 -26 -45 l0 -45 90 0 c89 0 90 0 90 25 0 23 -4 25 -45 25
l-45 0 0 65 0 65 -65 0 c-36 0 -66 -4 -66 -10z"/>
<path d="M3665 1125 c0 -30 4 -45 12 -45 9 0 13 15 13 45 0 29 -4 45 -12 45
-9 0 -13 -16 -13 -45z"/>
<path d="M1295 1090 c-4 -6 17 -10 55 -10 38 0 59 4 55 10 -3 6 -28 10 -55 10
-27 0 -52 -4 -55 -10z"/>
<path d="M3635 1061 c-6 -5 -23 -11 -40 -14 -24 -3 -21 -4 13 -6 31 -1 42 3
42 14 0 17 -3 18 -15 6z"/>
<path d="M1155 1000 c-3 -5 -1 -10 4 -10 6 0 11 5 11 10 0 6 -2 10 -4 10 -3 0
-8 -4 -11 -10z"/>
<path d="M1240 1000 c0 -5 5 -10 10 -10 6 0 10 5 10 10 0 6 -4 10 -10 10 -5 0
-10 -4 -10 -10z"/>
<path d="M1350 970 c0 -15 7 -20 25 -20 18 0 25 5 25 20 0 15 -7 20 -25 20
-18 0 -25 -5 -25 -20z"/>
<path d="M1660 959 c0 -17 4 -28 10 -24 6 3 10 17 10 31 0 13 -4 24 -10 24 -5
0 -10 -14 -10 -31z"/>
<path d="M3250 963 c0 -7 9 -13 20 -13 11 0 20 6 20 14 0 9 -9 14 -20 13 -11
-1 -20 -7 -20 -14z"/>
<path d="M1156 943 c-6 -14 -5 -15 5 -6 7 7 10 15 7 18 -3 3 -9 -2 -12 -12z"/>
<path d="M1580 921 c0 -11 -6 -22 -12 -24 -7 -3 3 -3 22 0 43 7 42 6 34 27 -9
23 -44 21 -44 -3z"/>
<path d="M3132 920 c-10 -17 -10 -20 3 -20 8 0 15 9 15 20 0 11 -1 20 -3 20
-1 0 -8 -9 -15 -20z"/>
<path d="M920 875 c-10 -12 -10 -15 4 -15 9 0 16 7 16 15 0 8 -2 15 -4 15 -2
0 -9 -7 -16 -15z"/>
<path d="M990 872 c0 -15 -6 -22 -20 -22 -13 0 -20 -7 -20 -20 0 -17 7 -20 46
-20 41 0 45 -2 42 -22 -2 -15 -11 -24 -25 -26 -20 -3 -23 -9 -23 -48 0 -37 -3
-44 -20 -44 -19 0 -20 -7 -20 -110 0 -97 2 -110 17 -110 13 0 14 3 5 12 -16
16 -15 28 3 28 11 0 15 12 15 50 0 47 2 50 25 50 20 0 25 -5 25 -25 0 -18 5
-25 20 -25 17 0 20 -7 20 -45 0 -41 2 -45 25 -45 18 0 25 -5 25 -19 0 -13 8
-21 23 -23 14 -2 23 -11 25 -25 3 -22 7 -23 113 -23 66 0 109 4 109 10 0 11
-20 12 -117 10 -53 -1 -63 1 -63 15 0 11 -5 15 -16 11 -17 -7 -66 22 -59 34 3
5 1 11 -5 15 -5 3 -10 15 -10 26 0 10 -7 19 -15 19 -8 0 -15 9 -15 19 0 11 -4
23 -10 26 -5 3 -10 15 -10 26 0 10 -7 19 -15 19 -9 0 -18 6 -21 14 -5 14 -50
10 -60 -5 -10 -17 -24 -9 -24 15 0 25 41 66 66 66 19 0 18 36 -1 44 -8 3 -15
10 -15 16 0 6 5 8 11 5 12 -8 38 23 39 46 0 22 -29 45 -52 41 -21 -4 -24 8 -6
26 9 9 9 15 0 24 -9 9 -12 7 -12 -10z"/>
<path d="M3086 875 c-19 -15 -19 -15 2 -15 13 0 22 6 22 15 0 18 0 18 -24 0z"/>
<path d="M1300 860 c-8 -5 -11 -12 -7 -16 4 -4 13 -2 19 4 15 15 7 24 -12 12z"/>
<path d="M1170 830 c0 -15 7 -20 25 -20 18 0 25 5 25 20 0 15 -7 20 -25 20
-18 0 -25 -5 -25 -20z"/>
<path d="M3047 836 c-3 -8 -21 -16 -39 -19 -29 -3 -28 -4 10 -5 36 -2 42 1 42
18 0 23 -6 26 -13 6z"/>
<path d="M2960 791 c0 -6 -17 -12 -37 -14 l-38 -4 43 -1 c31 -2 42 2 42 13 0
8 -2 15 -5 15 -3 0 -5 -4 -5 -9z"/>
<path d="M3470 743 c0 -11 3 -14 8 -7 4 6 14 14 22 17 10 4 8 6 -7 6 -16 1
-23 -5 -23 -16z"/>
<path d="M2989 711 c7 -5 17 -15 22 -22 6 -10 9 -8 9 9 0 16 -6 22 -22 22 -17
0 -19 -3 -9 -9z"/>
<path d="M3303 713 c32 -2 81 -2 110 0 29 2 3 3 -58 3 -60 0 -84 -1 -52 -3z"/>
<path d="M3088 663 c23 -2 61 -2 85 0 23 2 4 4 -43 4 -47 0 -66 -2 -42 -4z"/>
<path d="M2882 580 c0 -19 2 -27 5 -17 2 9 2 25 0 35 -3 9 -5 1 -5 -18z"/>
<path d="M2313 543 c15 -2 37 -2 50 0 12 2 0 4 -28 4 -27 0 -38 -2 -22 -4z"/>
<path d="M888 515 c2 -14 6 -25 8 -25 2 0 4 11 4 25 0 14 -4 25 -9 25 -4 0 -6
-11 -3 -25z"/>
<path d="M2390 508 c0 -5 26 -7 58 -7 61 1 55 6 -15 11 -24 2 -43 0 -43 -4z"/>
<path d="M1620 475 c0 -23 -4 -25 -45 -25 -38 0 -45 -3 -45 -20 0 -15 -7 -20
-25 -20 -20 0 -25 -5 -25 -25 0 -25 0 -25 95 -25 95 0 95 0 95 25 0 18 5 25
20 25 13 0 20 7 20 20 0 16 7 20 31 20 17 0 28 4 24 10 -3 6 -17 10 -31 10
-13 0 -24 6 -24 13 0 8 -16 13 -45 15 -42 1 -45 0 -45 -23z"/>
<path d="M2790 480 c0 -24 15 -27 24 -4 9 22 8 24 -9 24 -8 0 -15 -9 -15 -20z"/>
<path d="M990 450 c0 -36 3 -40 25 -40 23 0 25 4 25 40 0 36 -2 40 -25 40 -22
0 -25 -4 -25 -40z"/>
<path d="M1800 430 c0 -15 7 -20 25 -20 18 0 25 5 25 20 0 15 -7 20 -25 20
-18 0 -25 -5 -25 -20z"/>
<path d="M1397 423 c-13 -13 -7 -21 13 -16 11 3 17 9 14 14 -6 11 -18 12 -27
2z"/>
<path d="M1865 420 c-3 -5 1 -10 9 -10 9 0 16 5 16 10 0 6 -4 10 -9 10 -6 0
-13 -4 -16 -10z"/>
<path d="M1440 367 l0 -47 71 0 c50 0 70 3 67 12 -3 8 -24 11 -61 9 -42 -2
-57 1 -58 11 -3 61 -19 73 -19 15z"/>
<path d="M1058 379 c-17 -18 -17 -19 2 -19 13 0 20 7 20 20 0 24 0 24 -22 -1z"/>
<path d="M1735 390 c3 -5 8 -10 11 -10 2 0 4 5 4 10 0 6 -5 10 -11 10 -5 0 -7
-4 -4 -10z"/>
<path d="M1805 378 c6 -15 2 -18 -25 -18 -18 0 -29 -4 -25 -10 9 -15 41 -12
55 5 10 13 11 18 1 28 -10 9 -11 8 -6 -5z"/>
<path d="M1350 336 c0 -12 9 -16 38 -15 27 1 30 3 12 6 -14 3 -31 10 -37 15
-10 8 -13 6 -13 -6z"/>
<path d="M1440 286 c0 -10 8 -16 22 -16 12 0 19 1 17 3 -2 1 -12 9 -21 16 -15
12 -18 11 -18 -3z"/>
<path d="M1490 238 c0 -5 39 -7 88 -7 91 2 81 6 -26 11 -34 2 -62 0 -62 -4z"/>
<path d="M1737 234 c12 -3 24 -13 27 -22 3 -12 4 -11 3 3 -2 14 -10 21 -27 22
-21 1 -21 1 -3 -3z"/>
<path d="M1700 209 c0 -6 -7 -9 -15 -5 -9 3 -15 0 -15 -9 0 -8 9 -15 20 -15
13 0 20 7 20 20 0 11 -2 20 -5 20 -3 0 -5 -5 -5 -11z"/>
<path d="M1760 148 c0 -4 20 -8 44 -8 38 0 45 -3 49 -22 5 -20 5 -20 4 2 -2
22 -8 26 -49 30 -27 3 -48 2 -48 -2z"/>
<path d="M2275 150 c-3 -5 1 -10 9 -10 9 0 16 5 16 10 0 6 -4 10 -9 10 -6 0
-13 -4 -16 -10z"/>
<path d="M1198 1755 c-6 -14 -17 -25 -24 -25 -14 0 -29 -38 -19 -48 4 -4 12 1
19 11 7 9 21 17 30 17 9 0 16 8 16 19 0 10 7 21 15 25 22 8 18 26 -5 26 -12 0
-25 -10 -32 -25z"/>
<path d="M737 1593 c-12 -11 -8 -23 8 -23 8 0 15 -9 15 -20 0 -15 7 -20 25
-20 18 0 25 5 25 20 0 13 7 20 20 20 11 0 20 -4 20 -10 0 -5 5 -10 11 -10 6 0
9 10 7 23 -4 29 -54 37 -72 11 -12 -15 -13 -15 -19 0 -6 16 -28 21 -40 9z"/>
<path d="M1473 1583 c9 -2 23 -2 30 0 6 3 -1 5 -18 5 -16 0 -22 -2 -12 -5z"/>
<path d="M882 1358 c-16 -16 -15 -55 0 -64 17 -11 100 -5 116 8 17 15 15 55
-4 62 -27 10 -99 7 -112 -6z m108 -30 c0 -20 -5 -23 -45 -23 -40 0 -45 3 -45
23 0 20 5 22 45 22 40 0 45 -2 45 -22z"/>
<path d="M1110 1286 c0 -9 5 -16 10 -16 6 0 10 4 10 9 0 6 -4 13 -10 16 -5 3
-10 -1 -10 -9z"/>
<path d="M710 836 c0 -34 -5 -56 -12 -59 -8 -3 -6 -6 5 -6 14 -1 17 8 17 59 0
33 -2 60 -5 60 -3 0 -5 -24 -5 -54z"/>
<path d="M756 603 c-3 -4 -6 -19 -6 -33 0 -33 20 -53 40 -40 12 8 10 10 -7 10
-18 0 -23 6 -23 24 0 15 7 26 18 28 15 3 15 4 0 10 -9 4 -19 4 -22 1z"/>
</g>
</svg>
